:SAMPLES-PER-SECOND 30
:FULLY-SPECIFIED
:DEGREES
1260
root  -13.873 38.5228 -12.2185 -151.745 56.8066 -159.007
RightUpLeg  -18.4995 11.0236 19.9355
RightLeg  12.2785 -17.8207 -3.59986
RightFoot  -3.61457 0.718226 -10.9503
RightToes  2.32829e-010 0 -3.6325e-017
Spine  -11.6263 3.83976 20.2989
Spine1  12.0527 1.13596 1.00504
HEad  -3.65904 -19.807 4.15116
LeftShoulder1  -0.0422852 3.62197 -29.6919
LeftArm  -6.83037 15.1221 -41.9091
LeftForeArm  26.6921 -11.2677 -6.35643
LeftHand  -0.0113858 3.97558 -0.91241
RightShoulder  -0.412345 -4.80969 24.6441
RightArm  16.6256 -8.15255 48.287
RightForeArm  5.72892 20.677 4.58326
RightHand  -0.518842 3.87026 -6.76251
LeftUpLeg  -18.2259 31.1398 20.8286
LeftLeg  60.2987 -4.58134 -8.02646
LeftFoot  -0.524895 0.829197 -8.70299
LeftToes  -3.54706e-010 1.16038e-010 5.28031e-012
1261
root  -13.5133 38.6041 -12.6622 -151.114 61.0794 -158.038
RightUpLeg  -16.5689 10.9872 19.4719
RightLeg  12.6861 -13.9528 -3.70068
RightFoot  -4.44493 0.593518 -10.3133
RightToes  2.32829e-010 0 -3.6325e-017
Spine  -10.6189 4.28877 20.357
Spine1  12.5096 2.12382 0.111124
HEad  -3.42026 -18.858 3.95869
LeftShoulder1  -0.0288705 3.58414 -29.7805
LeftArm  -6.93279 15.3884 -42.0317
LeftForeArm  25.645 -12.5595 -5.90209
LeftHand  -0.0116628 3.80569 -0.772894
RightShoulder  -0.396124 -4.76007 24.5657
RightArm  16.4124 -7.41736 48.8707
RightForeArm  5.2898 22.1913 4.59643
RightHand  -0.514806 3.72568 -6.80877
LeftUpLeg  -19.4536 28.1058 19.7351
LeftLeg  60.81 -4.28106 -7.68144
LeftFoot  -1.57741 0.705591 -8.14271
LeftToes  -3.54706e-010 1.16038e-010 5.28031e-012
1262
root  -13.1251 38.7386 -13.109 -151.008 64.9419 -157.71
RightUpLeg  -14.7041 10.2196 18.5333
RightLeg  12.7926 -10.0503 -3.48824
RightFoot  -5.03302 0.525063 -10.1116
RightToes  2.32829e-010 0 -3.6325e-017
Spine  -9.45352 4.51506 20.204
Spine1  12.296 2.95178 -0.983738
HEad  -2.73818 -18.2551 3.58222
LeftShoulder1  -0.0131595 3.54081 -29.5548
LeftArm  -5.793 15.6914 -41.9591
LeftForeArm  23.6895 -14.1426 -5.6694
LeftHand  -0.0171524 3.95049 -0.731912
RightShoulder  -0.471305 -4.9913 24.8348
RightArm  16.4299 -6.95263 48.8534
RightForeArm  4.07986 23.8283 4.87927
RightHand  -0.567084 4.53135 -6.9107
LeftUpLeg  -20.8686 24.4414 18.0723
LeftLeg  59.4775 -2.64656 -4.30973
LeftFoot  -2.80757 0.552157 -7.15587
LeftToes  -3.54706e-010 1.16038e-010 5.28031e-012
1263
root  -12.7005 38.9019 -13.529 -151.316 68.6776 -157.773
RightUpLeg  -12.5697 9.27046 17.3579
RightLeg  12.2898 -6.38295 -3.2008
RightFoot  -5.46836 0.478878 -10.0133
RightToes  2.32829e-010 0 -3.6325e-017
Spine  -8.44014 4.46741 19.0548
Spine1  12.1471 3.29934 -1.32227
HEad  -2.59682 -17.3392 3.26552
LeftShoulder1  -0.0610962 3.67463 -29.5923
LeftArm  -4.47201 15.9808 -41.7947
LeftForeArm  21.7982 -16.0187 -5.25021
LeftHand  -0.0126519 3.48702 -0.367081
RightShoulder  -0.455848 -4.94567 24.7462
RightArm  15.5766 -6.68439 48.9089
RightForeArm  3.94499 25.5186 5.26675
RightHand  -0.596199 5.05019 -6.91954
LeftUpLeg  -21.9162 20.9392 16.4853
LeftLeg  56.6107 -1.11225 -1.3047
LeftFoot  -3.77901 0.376339 -5.35641
LeftToes  -3.54706e-010 1.16038e-010 5.28031e-012
1264
root  -12.2804 39.0074 -13.9385 -150.519 71.973 -156.949
RightUpLeg  -11.0474 8.74232 16.298
RightLeg  12.1397 -2.76349 -3.01433
RightFoot  -6.19385 0.388341 -9.53648
RightToes  2.32829e-010 0 -3.6325e-017
Spine  -7.58523 4.42482 18.1718
Spine1  11.8719 3.5166 -1.50388
HEad  -2.60241 -16.5355 2.67764
LeftShoulder1  -0.0878465 3.74814 -29.6895
LeftArm  -2.746 15.8273 -41.288
LeftForeArm  20.1244 -17.4924 -5.00278
LeftHand  -0.00892706 3.0019 -0.405006
RightShoulder  -0.492114 -5.06356 24.7247
RightArm  15.3821 -6.23387 48.6839
RightForeArm  4.69928 26.9157 5.54605
RightHand  -0.574127 5.12998 -6.62144
LeftUpLeg  -23.2012 17.5613 15.3595
LeftLeg  52.7517 -0.0353937 0.430381
LeftFoot  -4.68316 0.296889 -4.62645
LeftToes  -3.54706e-010 1.16038e-010 5.28031e-012
1265
root  -11.7985 39.1233 -14.3302 -149.183 75.0047 -155.362
RightUpLeg  -9.10646 8.10228 15.3984
RightLeg  11.4909 0.477591 -2.88011
RightFoot  -6.71028 0.325948 -9.15699
RightToes  2.32829e-010 0 -3.6325e-017
Spine  -7.08061 4.3248 17.559
Spine1  12.1747 3.71864 -2.17086
HEad  -2.95377 -15.9392 3.02298
LeftShoulder1  -0.00853784 3.52838 -29.073
LeftArm  -3.23679 15.7265 -41.5975
LeftForeArm  19.5781 -18.3473 -4.6668
LeftHand  -0.023751 2.64762 0.445723
RightShoulder  -0.450231 -4.92173 24.863
RightArm  15.2043 -5.9035 48.4769
RightForeArm  4.64321 27.6211 5.71315
RightHand  -0.648467 5.39425 -7.27918
LeftUpLeg  -23.7098 14.5053 14.7336
LeftLeg  47.289 -0.257351 0.143478
LeftFoot  -5.13994 0.273356 -4.49016
LeftToes  -3.54706e-010 1.16038e-010 5.28031e-012
1266
root  -11.3055 39.1929 -14.7071 -145.346 77.8378 -151.587
RightUpLeg  -7.67621 7.62398 14.6532
RightLeg  10.9564 3.63305 -2.76568
RightFoot  -7.18841 0.28339 -9.12351
RightToes  2.32829e-010 0 -3.6325e-017
Spine  -6.51068 4.25084 16.9272
Spine1  11.9789 3.8064 -2.4121
HEad  -3.28369 -15.2181 3.27373
LeftShoulder1  -0.030354 3.58956 -29.2049
LeftArm  -2.76412 15.2218 -41.0255
LeftForeArm  18.5717 -18.9968 -4.54926
LeftHand  -0.0426373 3.08154 1.33884
RightShoulder  -0.406885 -4.80507 24.3359
RightArm  15.153 -5.72789 48.8496
RightForeArm  4.67411 27.2681 5.62973
RightHand  -0.598242 4.60875 -7.22028
LeftUpLeg  -24.2646 11.9119 14.5168
LeftLeg  40.9631 -2.34395 -1.75449
LeftFoot  -5.77241 0.279372 -5.02491
LeftToes  -3.54706e-010 1.16038e-010 5.28031e-012
1267
root  -10.7604 39.2559 -15.0691 -138.113 80.5808 -144.702
RightUpLeg  -6.46536 7.04369 13.8833
RightLeg  10.2633 7.10339 -2.54618
RightFoot  -7.59796 0.242815 -8.97347
RightToes  2.32829e-010 0 -3.6325e-017
Spine  -6.46979 4.40033 16.3496
Spine1  11.9816 4.08278 -2.80849
HEad  -3.37408 -14.5821 3.54112
LeftShoulder1  -0.00193037 3.50945 -28.9046
LeftArm  -2.99893 14.8005 -40.8277
LeftForeArm  18.8115 -19.2935 -4.43846
LeftHand  -0.0442316 2.97014 1.39319
RightShoulder  -0.409763 -4.81193 24.3938
RightArm  15.5836 -5.49331 48.712
RightForeArm  3.55789 26.0864 5.4152
RightHand  -0.684582 4.7783 -8.09564
LeftUpLeg  -24.4908 10.1821 14.4517
LeftLeg  33.5944 -6.34424 -4.15656
LeftFoot  -5.84537 0.267701 -4.84144
LeftToes  -3.54706e-010 1.16038e-010 5.28031e-012
1268
root  -10.1891 39.3036 -15.4127 -127.036 82.8024 -134.045
RightUpLeg  -5.44195 6.48071 13.0299
RightLeg  9.64675 10.1624 -2.3382
RightFoot  -8.08826 0.200439 -8.95388
RightToes  2.32829e-010 0 -3.6325e-017
Spine  -6.56304 4.43402 15.5373
Spine1  12.0766 4.20308 -3.04592
HEad  -3.13088 -14.0238 3.63869
LeftShoulder1  0.00287232 3.49526 -28.8387
LeftArm  -3.33558 14.2863 -40.3034
LeftForeArm  18.7628 -19.5215 -4.35277
LeftHand  -0.0407696 3.0326 1.24196
RightShoulder  -0.4289 -4.86334 24.6269
RightArm  15.7703 -5.30847 48.3535
RightForeArm  2.7926 24.5906 5.12174
RightHand  -0.688938 4.63239 -8.24718
LeftUpLeg  -24.6581 8.4398 14.4181
LeftLeg  26.3394 -10.7632 -5.43664
LeftFoot  -6.17763 0.26614 -5.09023
LeftToes  -3.54706e-010 1.16038e-010 5.28031e-012
1269
root  -9.5732 39.3323 -15.7517 -106.259 84.4516 -113.442
RightUpLeg  -4.14706 6.58425 12.3079
RightLeg  9.07956 12.6992 -2.24846
RightFoot  -8.67787 0.146301 -8.77927
RightToes  2.32829e-010 0 -3.6325e-017
Spine  -6.77222 4.49267 15.2519
Spine1  12.6866 4.53716 -3.99471
HEad  -3.33141 -13.4267 4.22112
LeftShoulder1  0.0468387 3.36791 -28.2457
LeftArm  -4.18652 14.0167 -40.1417
LeftForeArm  19.2314 -19.7049 -4.2317
LeftHand  -0.0443714 2.48789 1.26108
RightShoulder  -0.47909 -5.01228 24.9028
RightArm  16.2883 -4.93277 48.1905
RightForeArm  1.97975 22.3238 4.76808
RightHand  -0.562749 3.64379 -7.47638
LeftUpLeg  -24.3251 7.9495 14.3426
LeftLeg  20.0393 -15.0059 -5.61897
LeftFoot  -6.4493 0.320237 -6.59611
LeftToes  -3.54706e-010 1.16038e-010 5.28031e-012
1270
root  -8.9009 39.3055 -16.0552 -74.8889 84.7784 -81.7347
RightUpLeg  -2.36738 8.37914 12.0525
RightLeg  8.8947 13.5245 -2.54207
RightFoot  -9.60799 0.0626083 -8.37414
RightToes  2.32829e-010 0 -3.6325e-017
Spine  -6.80408 4.66162 14.5954
Spine1  13.7746 4.87285 -4.19978
HEad  -3.55915 -12.9 4.0429
LeftShoulder1  0.0838568 3.2594 -28.1695
LeftArm  -4.13632 13.4503 -39.6963
LeftForeArm  19.0567 -19.7989 -4.2207
LeftHand  -0.0354784 2.77095 0.939498
RightShoulder  -0.380229 -4.7118 24.5046
RightArm  15.1918 -5.269 48.134
RightForeArm  2.43825 20.1943 4.71217
RightHand  -0.507632 3.34219 -6.99286
LeftUpLeg  -23.5691 11.1407 13.5768
LeftLeg  16.183 -19.4704 -5.85677
LeftFoot  -6.28798 0.385352 -7.67639
LeftToes  -3.54706e-010 1.16038e-010 5.28031e-012
1271
root  -8.19078 39.1919 -16.3851 -48.8107 83.7274 -55.6715
RightUpLeg  -1.60545 12.6068 11.5824
RightLeg  10.2104 11.8311 -2.28487
RightFoot  -11.2124 -0.0671353 -8.16262
RightToes  2.32829e-010 0 -3.6325e-017
Spine  -7.21818 4.91647 14.215
Spine1  14.4159 5.37781 -5.05871
HEad  -2.70614 -13.37 4.48819
LeftShoulder1  0.160107 3.0325 -27.8302
LeftArm  -4.53484 13.1453 -39.3554
LeftForeArm  19.6909 -19.4151 -4.24885
LeftHand  -0.041653 2.69812 1.18496
RightShoulder  -0.366626 -4.65931 24.7204
RightArm  13.9343 -5.69346 47.5557
RightForeArm  2.47411 17.6634 4.97656
RightHand  -0.585146 4.17409 -7.38329
LeftUpLeg  -23.4913 15.0227 12.3842
LeftLeg  15.5761 -21.2322 -6.48803
LeftFoot  -3.91855 0.479503 -7.66757
LeftToes  -3.54706e-010 1.16038e-010 5.28031e-012
1272
root  -7.45015 38.9841 -16.6769 -36.8367 81.9322 -43.4988
RightUpLeg  -1.11895 20.0016 11.5665
RightLeg  12.649 6.4188 -1.33846
RightFoot  -13.0835 -0.214576 -8.28577
RightToes  2.32829e-010 0 -3.6325e-017
Spine  -7.22737 4.90788 13.3689
Spine1  14.3058 5.41561 -5.28796
HEad  -1.32984 -12.7286 4.58137
LeftShoulder1  0.186063 2.9491 -27.3176
LeftArm  -5.01687 13.4005 -39.1852
LeftForeArm  20.1031 -19.0594 -4.27566
LeftHand  -0.0552783 2.51532 1.73136
RightShoulder  -0.374213 -4.67257 25.0087
RightArm  13.5045 -6.25134 46.7176
RightForeArm  2.076 14.8587 5.57485
RightHand  -0.587165 3.40797 -7.97016
LeftUpLeg  -23.6672 16.4881 12.201
LeftLeg  18.809 -20.3136 -7.46826
LeftFoot  -0.623103 0.271557 -2.6878
LeftToes  -3.54706e-010 1.16038e-010 5.28031e-012
